Coordinates
version=1
nRows=27
nColumns=38
inDegrees=no

Units are S.I. units (second, meters, Newtons, ...)
If the header above contains a line with 'inDegrees', this indicates whether rotational values are in degrees (yes) or radians (no).

endheader
time	pelvis_tilt	pelvis_list	pelvis_rotation	pelvis_tx	pelvis_ty	pelvis_tz	hip_flexion_r	hip_adduction_r	hip_rotation_r	knee_angle_r	ankle_angle_r	subtalar_angle_r	mtp_angle_r	hip_flexion_l	hip_adduction_l	hip_rotation_l	knee_angle_l	ankle_angle_l	subtalar_angle_l	mtp_angle_l	lumbar_extension	lumbar_bending	lumbar_rotation	arm_flex_r	arm_add_r	arm_rot_r	elbow_flex_r	pro_sup_r	wrist_flex_r	wrist_dev_r	arm_flex_l	arm_add_l	arm_rot_l	elbow_flex_l	pro_sup_l	wrist_flex_l	wrist_dev_l
160	-0.828457	1.55458	2.53709	0.902152	-0.1173	1.06768	0.0376093	-0.00846082	-0.0129122	0.374998	-0.192706	0	0	0.258774	-0.100955	-0.097407	1.02496	-0.172455	0	0	-0.108271	-0.0711112	0.140561	0.280521	-0.520834	0.407879	1.53665	1.5708	0	0	0.361396	-0.372397	0.474207	1.42638	1.5708	0	0
160.01	-0.852733	1.55165	2.56131	0.902189	-0.113155	1.06772	0.0303164	-0.0111848	-0.0150141	0.365549	-0.193097	0	0	0.274731	-0.0979848	-0.107028	1.00962	-0.174071	0	0	-0.109845	-0.0747725	0.139588	0.285773	-0.517849	0.409672	1.53418	1.5708	0	0	0.36553	-0.3751	0.474105	1.42555	1.5708	0	0
160.02	-0.99669	1.55189	2.70531	0.90177	-0.109037	1.06809	0.0196644	-0.0132774	-0.021126	0.357196	-0.19669	0	0	0.283073	-0.0951647	-0.111501	0.988418	-0.175946	0	0	-0.15727	-0.073671	0.255852	0.116934	-0.548477	0.181786	1.67901	1.5708	0	0	0.438556	-0.261305	0.509286	1.36844	1.5708	0	0
160.03	-0.984391	1.5469	2.6942	0.90184	-0.104563	1.06803	0.01384	-0.0177007	-0.02636	0.350087	-0.19633	0	0	0.295375	-0.0888191	-0.114379	0.963287	-0.178823	0	0	-0.115067	-0.0820437	0.145367	0.284862	-0.515891	0.399919	1.53574	1.5708	0	0	0.381921	-0.373255	0.483561	1.41589	1.5708	0	0
160.04	-1.00796	1.54441	2.71815	0.901516	-0.100276	1.06803	0.00551913	-0.0201228	-0.0297651	0.341821	-0.195882	0	0	0.304763	-0.0838495	-0.1171	0.936834	-0.179505	0	0	-0.116775	-0.0848342	0.144397	0.290208	-0.514878	0.402526	1.53355	1.5708	0	0	0.385159	-0.373256	0.482363	1.41425	1.5708	0	0
160.05	-1.02991	1.54212	2.74057	0.901083	-0.0959832	1.06803	-0.00287213	-0.0223214	-0.0332509	0.333222	-0.196259	0	0	0.31254	-0.078089	-0.117737	0.907139	-0.181821	0	0	-0.118736	-0.0875936	0.144265	0.29415	-0.514356	0.402988	1.53194	1.5708	0	0	0.389916	-0.372842	0.483342	1.41207	1.5708	0	0
160.06	-1.14805	1.54269	2.85865	0.900242	-0.0919257	1.06824	-0.0140205	-0.0236396	-0.0378514	0.325657	-0.199187	0	0	0.315602	-0.0739481	-0.11843	0.876572	-0.185918	0	0	-0.168452	-0.0888014	0.256436	0.130328	-0.547967	0.179337	1.67664	1.5708	0	0	0.470155	-0.271755	0.536267	1.36294	1.5708	0	0
160.07	-1.0431	1.53725	2.75436	0.899892	-0.0873365	1.06774	-0.0152061	-0.0278249	-0.0421262	0.322586	-0.197633	0	0	0.32615	-0.0662177	-0.117564	0.842849	-0.193691	0	0	-0.121308	-0.0925425	0.150385	0.293288	-0.516738	0.39309	1.53362	1.5708	0	0	0.407279	-0.369768	0.497382	1.4023	1.5708	0	0
160.08	-1.02174	1.53417	2.73311	0.899182	-0.0829784	1.06738	-0.0193788	-0.0306335	-0.0459552	0.319936	-0.195995	0	0	0.332942	-0.0598398	-0.116331	0.808318	-0.202329	0	0	-0.115703	-0.0937012	0.141161	0.311245	-0.513311	0.414197	1.51764	1.5708	0	0	0.402056	-0.373327	0.489556	1.40051	1.5708	0	0
160.09	-0.985754	1.53086	2.69715	0.898386	-0.078629	1.06694	-0.0224064	-0.0334375	-0.0483829	0.317747	-0.194682	0	0	0.339431	-0.0531683	-0.113296	0.77145	-0.213135	0	0	-0.111286	-0.0957151	0.136184	0.32234	-0.511692	0.426169	1.50773	1.5708	0	0	0.40095	-0.375014	0.486538	1.39845	1.5708	0	0
160.1	-0.943293	1.52743	2.6542	0.897624	-0.0743057	1.06644	-0.024304	-0.0359759	-0.0489266	0.316502	-0.193164	0	0	0.345034	-0.0464907	-0.108262	0.731674	-0.226122	0	0	-0.108465	-0.0986505	0.1356	0.32693	-0.511686	0.429095	1.50384	1.5708	0	0	0.403867	-0.375029	0.487804	1.39656	1.5708	0	0
160.11	-0.897876	1.52396	2.60764	0.896919	-0.070006	1.06592	-0.0251147	-0.0382266	-0.047706	0.316675	-0.19102	0	0	0.349388	-0.0399458	-0.100719	0.688757	-0.239613	0	0	-0.107253	-0.102732	0.139545	0.325222	-0.513331	0.423149	1.50546	1.5708	0	0	0.411087	-0.373414	0.493403	1.39468	1.5708	0	0
160.12	-0.693977	1.5131	2.40297	0.895874	-0.0651199	1.06465	-0.0129618	-0.0412024	-0.0450424	0.319494	-0.187304	0	0	0.363659	-0.0314439	-0.0866044	0.640824	-0.260881	0	0	-0.136276	-0.135419	0.270553	0.118866	-0.542814	0.155333	1.65703	1.5708	0	0	0.513331	-0.271811	0.585921	1.34782	1.5708	0	0
160.13	-0.669421	1.50933	2.37832	0.894764	-0.0606452	1.06391	-0.0133486	-0.0437617	-0.0460771	0.321552	-0.183903	0	0	0.366295	-0.0247717	-0.0737734	0.595423	-0.276705	0	0	-0.132603	-0.13941	0.273674	0.116103	-0.544033	0.149936	1.65667	1.5708	0	0	0.521753	-0.271183	0.596421	1.3438	1.5708	0	0
160.14	-0.78557	1.51362	2.49455	0.893681	-0.0566107	1.0638	-0.0271191	-0.0457421	-0.0494178	0.321325	-0.179382	0	0	0.356966	-0.0200092	-0.0639111	0.55226	-0.295652	0	0	-0.103882	-0.117598	0.169361	0.287795	-0.525398	0.366955	1.52959	1.5708	0	0	0.455823	-0.360312	0.54322	1.37631	1.5708	0	0
160.15	-0.764867	1.51136	2.47351	0.892522	-0.0519739	1.06303	-0.0294453	-0.047488	-0.05	0.322477	-0.17648	0	0	0.358104	-0.0157381	-0.0538201	0.510168	-0.311284	0	0	-0.103114	-0.122203	0.172943	0.284544	-0.527752	0.360762	1.53191	1.5708	0	0	0.462696	-0.358356	0.548989	1.37586	1.5708	0	0
160.16	-0.744476	1.50954	2.45248	0.891339	-0.047182	1.06222	-0.0318601	-0.0488749	-0.0508872	0.32463	-0.172587	0	0	0.35883	-0.0127121	-0.0456169	0.470115	-0.327194	0	0	-0.102426	-0.127215	0.180041	0.275584	-0.530265	0.34767	1.53722	1.5708	0	0	0.473129	-0.355226	0.560034	1.3735	1.5708	0	0
160.17	-0.729235	1.50831	2.43642	0.890091	-0.0422524	1.06141	-0.035539	-0.0498778	-0.0519002	0.325759	-0.168574	0	0	0.358971	-0.0108405	-0.0402488	0.43252	-0.34071	0	0	-0.102373	-0.132506	0.18778	0.265218	-0.532575	0.332905	1.5434	1.5708	0	0	0.483855	-0.351872	0.571651	1.37154	1.5708	0	0
160.18	-0.716048	1.5076	2.42224	0.888747	-0.0371626	1.06055	-0.0395923	-0.0506806	-0.0538453	0.32764	-0.164417	0	0	0.358475	-0.00985855	-0.0372684	0.397956	-0.349804	0	0	-0.102474	-0.137985	0.194912	0.255471	-0.534837	0.319446	1.5491	1.5708	0	0	0.493383	-0.348839	0.58185	1.37115	1.5708	0	0
160.19	-0.705093	1.50708	2.41001	0.887312	-0.0319293	1.05965	-0.0451394	-0.0513897	-0.0547999	0.325945	-0.16188	0	0	0.357754	-0.00926184	-0.0366476	0.367446	-0.35309	0	0	-0.102946	-0.143781	0.199884	0.248305	-0.536379	0.309149	1.55375	1.5708	0	0	0.499645	-0.346868	0.587699	1.37405	1.5708	0	0
160.2	-0.699895	1.50684	2.40331	0.885823	-0.0265401	1.05873	-0.0509967	-0.0522399	-0.0566474	0.325365	-0.159174	0	0	0.356517	-0.00879007	-0.0377521	0.34067	-0.351317	0	0	-0.104244	-0.150028	0.202915	0.243072	-0.53699	0.301023	1.55797	1.5708	0	0	0.503358	-0.346086	0.590046	1.38005	1.5708	0	0
160.21	-0.701327	1.50718	2.40309	0.884259	-0.0210237	1.05789	-0.0569175	-0.0534457	-0.0592407	0.326324	-0.15638	0	0	0.353882	-0.00828656	-0.0387388	0.316008	-0.345524	0	0	-0.107002	-0.156378	0.204107	0.239684	-0.537019	0.294744	1.56209	1.5708	0	0	0.504806	-0.346434	0.589162	1.38892	1.5708	0	0
160.22	-0.718505	1.51038	2.41762	0.882412	-0.0156603	1.05736	-0.0650444	-0.0538012	-0.0605871	0.327587	-0.153862	0	0	0.348043	-0.0090893	-0.0393392	0.294287	-0.335094	0	0	-0.175774	-0.170652	0.166561	0.260035	-0.534948	0.285772	1.6253	1.5708	0	0	0.459912	-0.361258	0.494254	1.50972	1.5708	0	0
160.23	-0.673426	1.50783	2.37071	0.880705	-0.00950906	1.05618	-0.067421	-0.0550544	-0.0627521	0.328313	-0.151024	0	0	0.348618	-0.00837511	-0.0393648	0.276068	-0.321975	0	0	-0.106208	-0.156377	0.203176	0.241829	-0.539002	0.297234	1.56516	1.5708	0	0	0.497561	-0.348031	0.580545	1.40105	1.5708	0	0
160.24	-0.639236	1.50783	2.33351	0.878823	-0.00351213	1.05518	-0.0714229	-0.0552811	-0.0629869	0.329515	-0.149397	0	0	0.347326	-0.00939291	-0.0409352	0.263222	-0.308423	0	0	-0.101771	-0.150802	0.206542	0.239575	-0.541519	0.296303	1.56773	1.5708	0	0	0.495974	-0.347259	0.58271	1.39945	1.5708	0	0
160.25	-0.605411	1.50811	2.29651	0.876899	0.00260132	1.05417	-0.0754991	-0.0555761	-0.0628828	0.330496	-0.148258	0	0	0.345411	-0.010582	-0.0415221	0.253945	-0.29388	0	0	-0.0979882	-0.145311	0.208242	0.239135	-0.543548	0.297239	1.57004	1.5708	0	0	0.49214	-0.347211	0.58157	1.40041	1.5708	0	0
160.26	-0.573528	1.50878	2.26119	0.874956	0.00884378	1.05318	-0.0799429	-0.0555834	-0.0622353	0.331977	-0.147131	0	0	0.34265	-0.0118979	-0.0411705	0.248165	-0.280888	0	0	-0.0946596	-0.140017	0.209199	0.239681	-0.545296	0.299299	1.57208	1.5708	0	0	0.487102	-0.347604	0.578519	1.40303	1.5708	0	0
